PathFileType	4	(X/Y/Z)	C:/Users/beibeiliu/ov580/test_trc/User2\sequence.5_training_dense_right.trc
DataRate	CameraRate	NumFrames	NumMarkers	Units	OrigDataRate	OrigDataStartFrame	OrigNumFrames
120	120	23	19	mm	120	261	417
Frame#	Time	ThumbCMC			ThumbMCP			ThumbIP			ThumbTip			IndexMCP			IndexPIP			IndexTip			MiddleMCP			MiddlePIP			MiddleTip			RingMCP			RingPIP			RingTip			PinkyMCP			PinkyPIP			PinkyTip			BackHand1			BackHand2			BackHand3	
		X0	Y0	Z0	X1	Y1	Z1	X2	Y2	Z2	X3	Y3	Z3	X4	Y4	Z4	X5	Y5	Z5	X6	Y6	Z6	X7	Y7	Z7	X8	Y8	Z8	X9	Y9	Z9	X10	Y10	Z10	X11	Y11	Z11	X12	Y12	Z12	X13	Y13	Z13	X14	Y14	Z14	X15	Y15	Z15	X16	Y16	Z16	X17	Y17	Z17	X18	Y18	Z18	
260	2.16667	179.091	-3.91187	66.4363	160.179	17.7694	46.3648	132.207	31.2875	24.0966	102.677	31.4049	16.0242	120.273	-28.4426	6.24314	99.8197	-13.7299	-5.98469	80.1167	13.3003	-10.663	102.398	-36.5684	18.3456	79.2865	-6.57141	10.2666	83.9121	26.1956	32.4029	86.856	-25.3671	37.9308	80.3975	6.17888	42.8202	105.9	21.0925	64.547	77.7114	-26.1335	61.3898	82.8724	5.9221	65.841	111.126	11.0948	79.2572	129.13	-59.9151	77.3431	151.441	-60.4812	103.415	165.498	-49.2878	66.3086	
261	2.175	175.587	-8.98268	67.9421	156.807	15.7833	43.3179	127.95	28.7776	24.295	101.917	29.5183	20.3582	120.429	-30.386	5.83655	103.427	-15.9669	-12.5252	80.5501	6.77641	-17.9974	97.4676	-31.7863	15.2639	78.493	-0.0446894	14.5771	93.7393	30.1629	38.3672	81.9744	-20.066	38.7668	78.1382	9.14702	45.1928	109.341	22.6233	65.717	78.659	-24.2032	62.731	83.0308	11.2456	66.8068	115.876	10.5649	78.1223	122.138	-59.6439	75.7376	146.605	-59.8647	101.992	161.593	-49.4373	68.6142	
262	2.18333	171.964	-11.1213	64.0287	158.368	16.2881	45.9562	131.832	32.652	24.7026	102.545	34.5249	20.1303	118.119	-33.7227	2.30838	99.5633	-23.3126	-14.1101	79.4957	-5.37224	-28.4858	91.709	-29.6287	18.332	78.4822	6.32884	15.833	96.3114	28.2986	40.9939	80.7735	-19.0726	39.4426	81.6937	14.3698	44.3724	108.579	22.6041	68.5237	74.7769	-18.0292	61.5136	83.4788	13.5491	64.9015	111.026	12.4754	79.6062	116.136	-58.7982	79.8567	138.418	-63.4951	103.586	154.304	-53.644	66.8154	
263	2.19167	167.483	-14.3457	64.0571	154.727	12.763	44.4208	125.423	28.9538	24.8388	100.066	33.8357	20.4108	116.954	-39.0861	2.7041	101.544	-30.8272	-19.7783	83.4214	-19.3875	-34.704	89.7285	-30.621	19.4057	77.7558	3.81998	14.6802	99.8209	28.5999	39.5229	77.5221	-17.1317	38.334	77.3359	15.2453	46.3118	105.128	22.2126	67.8632	70.989	-17.6387	62.2643	83.4299	14.2802	66.1036	111.655	12.296	79.4022	112.215	-59.285	77.9967	133.765	-64.46	104.498	151.384	-53.6479	70.398	
264	2.2	168.994	-17.1589	67.6962	153.924	9.33947	47.0641	124.282	27.046	25.3669	99.6618	31.0727	24.7996	112.303	-42.9894	4.24705	100.251	-36.4493	-17.5776	79.3028	-27.6665	-34.68	85.2876	-30.6902	18.8763	75.175	5.01676	15.5464	99.1717	26.1484	43.2617	72.9206	-18.1204	41.1951	79.0249	15.3171	43.6963	106.843	20.0573	69.8351	69.3681	-17.2744	60.7977	82.0823	14.6693	64.3215	112.078	7.45505	79.247	104.819	-60.3957	81.4973	127.071	-64.2906	103.529	146.072	-56.8001	71.627	
265	2.20833	159.85	-22.8395	67.9944	150.279	5.59889	44.9733	123.991	24.9524	24.3726	95.5597	29.6936	21.2042	108.082	-46.5059	7.8156	94.744	-40.3089	-15.779	76.0221	-29.1809	-37.1166	80.712	-31.3611	16.9329	73.9428	2.41813	14.6118	94.0892	23.1033	42.9655	71.3645	-16.482	40.0542	76.0447	16.689	47.232	102.765	20.1301	65.6791	62.2908	-14.2774	62.1565	77.483	13.0818	63.8804	106.438	6.50998	82.6388	97.1011	-60.2525	78.3832	122.647	-67.2859	108.642	140.91	-60.9268	72.0542	
266	2.21667	159.282	-25.3742	67.7051	148.993	1.15199	48.2422	124.887	18.4554	28.6373	95.8498	27.8445	20.0442	105.821	-47.6948	12.005	90.4441	-35.6333	-16.8888	73.2309	-19.4149	-31.7359	77.2017	-33.3814	19.4386	72.0215	2.19925	14.0573	94.6705	22.7959	37.8438	69.7722	-18.3374	39.222	71.2156	12.1176	47.2959	102.74	16.8465	68.1697	63.0122	-19.3362	62.5417	75.3286	13.9699	68.263	106.968	4.97883	80.3188	94.3198	-63.3764	81.7539	113.939	-66.8372	107.632	134.733	-62.2132	76.9793	
267	2.225	154.981	-29.856	75.6822	146.101	-3.70331	48.7456	123.775	15.496	28.1567	97.2429	23.7392	22.2839	105.115	-43.3694	9.67624	85.8007	-26.6978	-8.43231	71.5044	4.20223	-19.6929	77.1416	-35.374	19.5971	69.3706	0.249866	16.5783	91.1108	21.2557	40.1077	65.1706	-18.7627	41.5018	74.6071	12.2463	45.6682	104.371	12.9429	69.1141	60.0652	-18.3109	64.1951	73.0455	12.4373	68.7111	103.538	1.65804	84.5217	88.7808	-64.1658	81.5632	109.731	-70.8968	110.058	130.102	-65.1996	75.0572	
268	2.23333	155.94	-31.8522	76.4097	145.589	-4.2376	47.4119	124.126	12.805	30.1522	94.3882	21.0577	19.0758	95.0243	-37.9641	12.3795	85.2487	-12.5495	-3.8075	78.4089	17.7997	-2.46396	73.1946	-35.7031	22.9322	68.9685	-1.8477	15.6446	90.3856	19.4443	46.6789	63.4263	-18.5548	41.7163	73.1773	11.7824	46.9617	101.121	10.7689	68.6938	55.8363	-17.2805	66.967	75.5905	12.5555	70.5274	101.291	1.20834	89.0875	87.6045	-63.6875	82.4983	106.632	-69.3631	115.066	131.297	-66.5469	80.5692	
269	2.24167	148.734	-31.9606	76.7934	141.57	-7.18716	50.2675	120.216	12.3589	28.9254	93.0554	19.9617	21.2682	96.2231	-36.2037	14.3063	80.0576	-7.68532	3.90502	77.118	20.9964	10.1449	74.201	-37.6924	23.9438	64.2464	0.921759	20.8078	88.5403	18.3071	49.2295	60.2102	-22.3395	46.2327	67.6178	9.56117	48.0068	96.5416	10.4634	69.6595	51.8865	-17.1012	68.973	71.3106	10.7666	72.5924	96.5493	-0.8563	90.1758	85.8594	-66.0658	83.7248	104.969	-72.3551	111.643	128.349	-67.6871	79.2895	
270	2.25	151.096	-31.7939	74.111	142.604	-5.02598	50.0402	118.661	11.1868	32.334	90.6166	18.0543	25.2093	91.0746	-37.8094	16.6133	76.5336	-9.51311	4.85855	74.0455	19.9114	9.4691	71.7079	-37.3995	23.2565	62.217	-1.67124	20.1166	89.7439	18.5257	46.3116	58.416	-20.7906	45.6968	68.8737	10.9367	49.8989	97.0518	8.79019	72.9616	50.2961	-20.2508	68.7852	65.7836	10.0514	73.0831	93.8516	-1.11559	85.9011	86.7486	-65.0424	87.3672	107.69	-73.2294	114.13	126.561	-69.5264	82.4973	
271	2.25833	149.301	-31.4342	74.9937	140.147	-4.03827	48.8883	117.587	14.779	29.0624	87.5715	18.4538	24.6475	92.1874	-40.671	15.0886	76.8793	-17.0153	-1.77952	67.9833	17.1527	0.104032	69.2902	-37.4604	24.8937	59.6288	-1.794	19.9408	82.5039	18.372	46.0914	57.0283	-22.8126	46.5464	62.9227	10.8541	52.4935	92.8583	11.5559	71.6925	50.5935	-20	67.6309	67.358	11.2758	73.063	93.6855	1.91898	86.0718	83.4707	-66.7066	83.4937	102.53	-70.5047	118.209	125.103	-69.6147	80.5334	
272	2.26667	145.35	-31.2552	72.6548	135.946	-5.43307	50.1794	112.016	12.5911	30.4132	88.0632	21.221	26.0013	94.0318	-44.6996	13.5723	74.6966	-26.5171	-5.95414	64.3712	0.387737	-15.2527	63.4784	-36.9493	25.0406	58.7742	-0.102425	19.664	84.6586	19.3231	47.3542	57.0754	-23.3006	45.3828	62.0399	12.6994	51.9075	90.4366	13.3647	70.1093	48.4395	-15.5458	67.4833	66.3626	12.4327	73.9349	92.4336	1.14695	90.5555	82.784	-64.0722	84.7019	101.28	-72.5802	113.769	119.339	-68.4932	82.5657	
273	2.275	146.787	-31.4194	74.1442	133.815	-5.74676	49.7546	115.145	16.3723	30.5223	86.2937	23.176	22.8017	93.0012	-47.8778	13.5206	78.3801	-33.9158	-9.69717	61.8196	-11.2416	-23.2256	64.6265	-38.492	25.9216	59.0068	0.984283	19.0834	80.255	19.9166	43.5655	54.3038	-19.392	45.9448	61.3825	11.1984	51.0817	93.3034	12.898	70.3669	47.3256	-17.9909	69.3808	65.1156	10.5152	69.3454	91.0622	4.55127	86.9272	85.086	-66.2728	85.9767	100.954	-69.801	111.436	118.431	-67.6961	77.7448	
274	2.28333	146.846	-30.6727	75.9685	137.625	-3.68217	52.1461	112.209	17.8513	27.3785	86.079	23.7817	25.4445	93.797	-46.2198	8.57506	77.8508	-34.5236	-11.2021	65.8136	-15.8056	-30.5082	65.6951	-34.6505	21.3915	58.8335	1.50907	19.3295	82.9784	22.167	42.748	52.9436	-17.2128	44.4917	61.2927	9.67982	46.9038	90.7666	14.2716	72.0592	47.1479	-18.4951	69.9291	64.9276	12.3764	71.8906	90.0578	3.51539	89.2751	84.3859	-66.522	83.3725	101.508	-72.1387	116.407	118.897	-66.1379	78.6194	
275	2.29167	146.024	-28.4362	73.8158	136.978	0.261159	48.049	111.045	16.0194	31.3487	85.995	25.332	23.6826	94.1792	-44.4178	12.751	79.5342	-28.9642	-12.7329	64.2449	-5.654	-29.3618	64.8644	-35.7561	24.4935	59.3033	1.63561	18.9727	78.8755	21.2392	43.4696	54.5748	-22.4423	46.5649	59.3338	11.0139	51.075	88.8617	15.3095	68.7686	48.1276	-15.5871	66.8359	67.0988	10.5124	69.7759	91.4283	4.19875	87.5454	80.9095	-63.7353	82.1473	105.203	-71.3535	111.483	121.055	-64.7472	79.559	
276	2.3	148.117	-26.9509	75.743	138.101	1.95608	49.1455	113.528	20.9493	29.3486	84.4351	26.814	23.1936	94.4382	-39.5287	12.4353	76.1298	-20.3109	-5.90673	63.6776	9.71622	-17.8315	69.8488	-35.6619	23.8273	58.1213	2.64408	20.6085	76.791	22.0264	46.0949	55.3046	-17.7857	43.6839	62.1175	12.8821	50.6811	87.1935	15.738	70.568	51.1547	-17.8323	64.7288	67.2623	10.5323	70.4112	92.381	4.25918	88.9684	85.2613	-63.1558	80.1744	104.962	-69.7791	113.603	122.058	-63.8388	76.9563	
277	2.30833	144.663	-24.7264	71.2678	134.507	1.41293	49.5044	109.193	21.3618	29.7224	85.5354	27.5542	28.2573	90.5708	-32.5794	11.8322	76.8583	-10.8067	-3.20802	60.6024	21.0864	-3.78494	67.6342	-34.097	24.5738	56.9815	1.18715	20.4991	79.9002	22.3702	51.4566	56.4969	-17.7151	44.0825	57.703	11.232	52.0893	91.7415	14.922	71.3286	50.5049	-19.2418	68.7459	64.7623	12.4044	75.3386	92.6425	2.09385	87.2536	86.7424	-63.4207	81.0756	109.683	-70.942	110.772	128.228	-63.0369	73.2177	
278	2.31667	149.318	-19.7762	69.0362	133.016	5.21674	48.2291	107.982	24.3628	30.6742	79.8304	28.5067	26.8725	92.7318	-30.6017	10.3212	73.5281	-7.93003	-2.31273	59.5721	17.3822	-1.39784	66.5579	-32.4158	25.2247	57.1552	1.23164	19.6238	77.6459	24.6137	46.2866	57.364	-17.827	43.9286	58.9606	11.9226	52.0864	88.3328	15.4689	73.044	51.2143	-21.299	68.8875	60.5137	11.3077	75.1031	93.7618	5.0047	90.3113	90.3373	-62.3669	79.8038	111.778	-70.7884	110.849	131.33	-59.4912	71.5379	
279	2.325	151.678	-17.3297	69.3845	136.161	10.5317	48.4303	110.558	29.1351	30.592	83.0283	31.8824	28.1064	92.2965	-32.2655	11.2312	72.8104	-12.6753	-4.7049	59.8832	10.3078	-12.5158	69.8727	-32.668	24.7831	56.358	3.6911	21.9803	74.776	25.7801	45.6722	59.2209	-19.686	44.6203	59.2431	11.8093	52.7593	86.5693	18.3515	73.2479	51.5032	-21.4671	71.2668	61.8113	10.6473	75.7101	94.3843	8.20078	87.8457	94.9268	-63.668	83.7439	118.739	-68.5804	105.588	133.933	-59.2343	71.6064	
280	2.33333	155.428	-12.2286	68.8806	137.815	13.4905	49.765	106.352	29.5197	31.3488	80.1282	34.7546	26.9285	96.8491	-33.2553	10.3626	77.7637	-17.305	-12.3381	60.1415	3.55093	-23.3384	70.0041	-29.9568	21.2604	56.5593	0.956257	21.4953	75.5245	28.2527	47.5593	61.7958	-17.2197	43.747	60.8453	11.1318	50.2615	88.9176	19.4721	75.2382	56.5436	-23.3264	68.4748	64.3085	11.7345	75.3441	96.2865	8.32091	87.0619	98.8025	-61.405	77.068	121.748	-66.2296	104.774	136.911	-53.6423	67.7323	
281	2.34167	156.529	-10.3522	65.8829	136.987	16.4146	46.3171	107.992	30.2701	31.8031	81.9131	36.9589	26.2092	102.675	-32.3614	8.23405	85.33	-19.3402	-15.1498	64.1771	-5.32974	-27.1652	75.2686	-31.9504	21.9284	60.2725	5.37998	17.3347	72.5998	29.2047	45.7438	63.9527	-21.7081	47.3758	63.1369	12.7279	52.1384	93.2171	20.4538	72.6953	59.9553	-22.6244	67.7838	66.7407	10.4903	73.3721	98.5278	10.4786	90.8153	104.273	-58.8431	76.4193	127.97	-63.3835	101.855	142.649	-51.5399	66.267	
282	2.35	159.926	-7.08098	63.8001	141.367	20.6964	44.8382	113.356	34.4378	31.7214	85.2464	36.5405	27.6506	106.968	-27.7044	2.31522	85.7633	-18.8648	-14.4743	63.956	-2.02781	-27.593	76.1048	-30.4407	19.9142	60.0679	3.48973	17.5234	72.5241	31.3051	42.2182	65.7275	-17.5969	44.0583	64.9258	11.6661	52.5041	93.3256	22.263	70.8917	63.067	-24.0389	67.2335	70.5683	11.5837	73.6814	101.664	11.7206	84.9955	108.462	-61.385	76.0818	135.591	-62.6019	101.475	147.399	-50.1895	62.9503	
